<svg width="144" height="128" viewBox="0 0 144 128" fill="none" xmlns="http://www.w3.org/2000/svg">
<path d="M117.198 20.8794C117.198 18.4193 115.204 16.4251 112.744 16.4251H20.8743C18.4143 16.4251 16.4201 18.4193 16.4201 20.8794V89.7473C16.4201 92.3609 19.6964 93.5339 21.3553 91.5142L22.4888 90.1341C23.7579 88.5889 25.6524 87.6933 27.6519 87.6933H71.808C73.837 87.6933 75.9466 88.7716 77.5735 89.9841C78.6237 90.7667 79.7255 91.5144 80.2468 91.962L86.8531 97.1721C89.4305 99.3854 87.8123 102.726 84.415 102.726H26.7206L5.86748 126.838C3.84281 129.179 -0.00171835 127.746 5.76221e-07 124.651L0.0618277 13.3628C0.0618277 6.01326 6.00827 0 13.3578 0H120.26C127.61 0 133.623 6.01326 133.623 13.3628V63.3417C133.623 65.5532 131.385 66.5984 129.799 65.0571C126.937 62.2752 123.233 58.548 120.341 56.2775C118.608 54.9175 117.198 52.8456 117.198 50.643V20.8794Z" fill="#B7BDC9"/>
<path d="M73.4904 55.6783H33.402C29.712 55.6783 26.7206 58.6697 26.7206 62.3597C26.7206 66.0497 29.712 69.0411 33.402 69.0411H73.4904C77.1804 69.0411 80.1718 66.0497 80.1718 62.3597C80.1718 58.6697 77.1804 55.6783 73.4904 55.6783Z" fill="#B7BDC9"/>
<path d="M100.216 32.2934H33.402C29.712 32.2934 26.7206 35.2848 26.7206 38.9748C26.7206 42.6649 29.712 45.6562 33.402 45.6562H100.216C103.906 45.6562 106.897 42.6649 106.897 38.9748C106.897 35.2848 103.906 32.2934 100.216 32.2934Z" fill="#B7BDC9"/>
<path d="M112.916 69.4421C114.046 65.7751 119.236 65.7751 120.366 69.4421L123.91 80.9477C124.42 82.6037 125.962 83.7241 127.694 83.6975L139.732 83.5123C143.568 83.4534 145.173 88.39 142.034 90.5974L132.187 97.5231C130.769 98.5199 130.18 100.333 130.741 101.972L134.637 113.364C135.879 116.994 131.679 120.045 128.61 117.742L118.98 110.517C117.594 109.477 115.688 109.477 114.302 110.517L104.672 117.742C101.603 120.045 97.4037 116.994 98.6453 113.364L102.541 101.972C103.102 100.333 102.513 98.5199 101.096 97.5231L91.2482 90.5974C88.1097 88.39 89.7137 83.4534 93.5502 83.5123L105.588 83.6975C107.32 83.7241 108.862 82.6037 109.373 80.9477L112.916 69.4421Z" fill="#B7BDC9"/>
</svg>
